<svg width="16" height="16" viewBox="0 0 16 16" fill="none" xmlns="http://www.w3.org/2000/svg">
<g clip-path="url(#clip0_898_447)">
<path d="M15.1426 15.1426L12.3232 12.3232M7.57122 14.2855C9.35196 14.2855 11.0598 13.5781 12.3189 12.3189C13.5781 11.0598 14.2855 9.35196 14.2855 7.57122C14.2855 5.79048 13.5781 4.08268 12.3189 2.8235C11.0598 1.56433 9.35196 0.856934 7.57122 0.856934C5.79048 0.856934 4.08268 1.56433 2.8235 2.8235C1.56433 4.08268 0.856934 5.79048 0.856934 7.57122C0.856934 9.35196 1.56433 11.0598 2.8235 12.3189C4.08268 13.5781 5.79048 14.2855 7.57122 14.2855Z" stroke="#0AB477" stroke-width="1.14286" stroke-linecap="round" stroke-linejoin="round"/>
<path d="M6.28571 5.14258L4 7.42829L6.28571 9.71401M8.57143 5.14258L10.8571 7.42829L8.57143 9.71401" stroke="#0AB477" stroke-width="1.14286" stroke-linecap="round" stroke-linejoin="round"/>
</g>
<defs>
<clipPath id="clip0_898_447">
<rect width="16" height="16" fill="white"/>
</clipPath>
</defs>
</svg>
