<svg width="16" height="16" viewBox="0 0 16 16" fill="none" xmlns="http://www.w3.org/2000/svg">
<g clip-path="url(#clip0_34_428)">
<path d="M0.519253 -0.000196646C0.444431 -0.00126887 0.370304 0.0158253 0.302078 0.0498853C0.233852 0.0839454 0.173182 0.134145 0.124329 0.19696C0.0754749 0.259774 0.0396224 0.33368 0.0192889 0.413487C-0.0010446 0.493293 -0.00536601 0.577065 0.00662815 0.65892L2.18282 15.2995C2.20992 15.4786 2.29313 15.6415 2.41782 15.7594C2.54251 15.8773 2.70071 15.9428 2.86463 15.9443H13.3046C13.4275 15.9461 13.5468 15.8988 13.6409 15.8112C13.735 15.7236 13.7975 15.6015 13.8172 15.4671L15.9934 0.66176C16.0054 0.57991 16.0011 0.496147 15.9807 0.416352C15.9604 0.336558 15.9245 0.262666 15.8757 0.199867C15.8268 0.137067 15.7661 0.0868818 15.6979 0.0528343C15.6297 0.0187868 15.5556 0.00170274 15.4808 0.00278171L0.519253 -0.000196646ZM9.68275 10.5811H6.35057L5.44832 5.35724H10.4902L9.68275 10.5811Z" fill="#2684FF"/>
<path d="M15.288 5.3501H10.4808L9.67396 10.5698H6.34446L2.41309 15.7413C2.53769 15.8607 2.69656 15.9271 2.86127 15.9286H13.2955C13.4183 15.9303 13.5376 15.8832 13.6316 15.7956C13.7256 15.7081 13.7881 15.5861 13.8078 15.4518L15.2881 5.3501H15.288Z" fill="url(#paint0_linear_34_428)"/>
</g>
<defs>
<linearGradient id="paint0_linear_34_428" x1="16.3997" y1="6.81184" x2="10.0592" y2="14.9355" gradientUnits="userSpaceOnUse">
<stop offset="0.18" stop-color="#0052CC"/>
<stop offset="1" stop-color="#2684FF"/>
</linearGradient>
<clipPath id="clip0_34_428">
<rect width="16" height="16" fill="white"/>
</clipPath>
</defs>
</svg>
