<svg width="19" height="16" viewBox="0 0 19 16" fill="none" xmlns="http://www.w3.org/2000/svg">
<g clip-path="url(#clip0_876_490)">
<path d="M3.94636 0C2.86225 0 2.06002 1.00275 2.09594 2.0902C2.13045 3.1349 2.08562 4.48808 1.76329 5.59153C1.43999 6.6982 0.893148 7.39922 0 7.48925V8.50541C0.893148 8.59545 1.43999 9.29647 1.76329 10.4032C2.08562 11.5067 2.13045 12.8597 2.09594 13.9045C2.06002 14.9918 2.86225 15.9947 3.94651 15.9947H15.0551C16.1392 15.9947 16.9412 14.9919 16.9053 13.9045C16.8709 12.8598 16.9156 11.5067 17.238 10.4032C17.5615 9.29655 18.1069 8.59537 19 8.50541V7.48925C18.1069 7.39922 17.5615 6.6982 17.238 5.59153C16.9156 4.48824 16.8709 3.13498 16.9053 2.0902C16.9412 1.0029 16.1392 0 15.0551 0H3.94621H3.94636ZM12.8814 9.84573C12.8814 11.3431 11.8245 12.2512 10.0706 12.2512H7.08477C6.99938 12.2512 6.91749 12.2153 6.85711 12.1515C6.79673 12.0877 6.76281 12.0011 6.76281 11.9109V4.08377C6.7628 4.03907 6.77112 3.99481 6.7873 3.95351C6.80348 3.91221 6.8272 3.87469 6.85711 3.84308C6.88701 3.81147 6.92252 3.78639 6.96159 3.76929C7.00067 3.75218 7.04255 3.74337 7.08485 3.74337H10.0535C11.516 3.74337 12.4758 4.58063 12.4758 5.86596C12.4758 6.76816 11.8301 7.57584 11.0075 7.71726V7.76439C12.1274 7.8942 12.8814 8.71373 12.8814 9.84573ZM9.74492 4.8222H8.04257V7.36337H9.47647C10.5849 7.36337 11.1961 6.89169 11.1961 6.04855C11.1961 5.25851 10.6705 4.8222 9.745 4.8222H9.74492ZM8.04257 8.37169V11.1721H9.80764C10.9616 11.1721 11.573 10.6827 11.573 9.76306C11.573 8.84322 10.9446 8.37153 9.73342 8.37153H8.04257V8.37169Z" fill="#7E13F8"/>
</g>
<defs>
<clipPath id="clip0_876_490">
<rect width="19" height="16" fill="white"/>
</clipPath>
</defs>
</svg>
