<svg width="16" height="16" viewBox="0 0 16 16" fill="none" xmlns="http://www.w3.org/2000/svg">
<path d="M3.26306 12.737L0.525813 9.99974C0.201125 9.66693 0 9.19637 0 8.73643C0 8.52349 0.12 8.19062 0.210562 8.00005L2.73725 2.7373L3.26306 12.737Z" fill="#01579B"/>
<path d="M12.6323 3.26306L9.89509 0.525813C9.65634 0.285812 9.15871 0 8.73759 0C8.37534 0 8.02009 0.0729375 7.79071 0.210562L2.73853 2.73725L12.6323 3.26306ZM6.52621 16H13.1582V13.1581L8.21065 11.5783L3.68428 13.1581L6.52621 16Z" fill="#40C4FF"/>
<path d="M2.7373 11.2632C2.7373 12.1077 2.84318 12.3148 3.26312 12.7371L3.68424 13.1582H13.1581L8.52705 7.89543L2.7373 2.7373V11.2632V11.2632Z" fill="#29B6F6"/>
<path d="M11.1584 2.73584H2.7373L13.1581 13.1567H16.0001V6.63059L12.6311 3.26165C12.1582 2.78759 11.7383 2.73584 11.1584 2.73584Z" fill="#01579B"/>
<path opacity="0.2" d="M3.36889 12.8417C2.94776 12.4195 2.84307 12.0031 2.84307 11.2632V2.84199L2.73839 2.7373V11.2631C2.73714 12.003 2.73714 12.2077 3.36889 12.8417L3.68414 13.1569L3.36889 12.8417V12.8417Z" fill="white"/>
<path opacity="0.2" d="M15.8954 6.52637V13.0524H13.0535L13.1582 13.1583H16.0001V6.63105L15.8954 6.52637Z" fill="#263238"/>
<path opacity="0.2" d="M12.6323 3.26312C12.1101 2.7408 11.6831 2.7373 11.0538 2.7373H2.73853L2.84321 2.84199H11.0538C11.3678 2.84199 12.1607 2.78905 12.6323 3.26312Z" fill="white"/>
<path opacity="0.2" d="M15.8954 6.52612L12.6323 3.263L9.89509 0.525875C9.65635 0.285812 9.15872 0 8.73759 0C8.37535 0 8.0201 0.0729375 7.79072 0.210562L2.73853 2.73725L0.211846 8C0.121221 8.19175 0.0012207 8.52462 0.0012207 8.73637C0.0012207 9.19631 0.203596 9.66562 0.527096 9.99969L3.04903 12.5041C3.10903 12.5781 3.17966 12.6534 3.26316 12.7369L3.36785 12.8416L3.6831 13.1569L6.42035 15.8941L6.52503 15.9988H13.1557V13.1569H15.9977V6.63075L15.8953 6.52606L15.8954 6.52612Z" fill="url(#paint0_radial_876_448)"/>
<defs>
<radialGradient id="paint0_radial_876_448" cx="0" cy="0" r="1" gradientUnits="userSpaceOnUse" gradientTransform="translate(7.99944 7.99853) scale(7.99886 7.99885)">
<stop stop-color="white" stop-opacity="0.1"/>
<stop offset="1" stop-color="white" stop-opacity="0"/>
</radialGradient>
</defs>
</svg>
