<svg width="16" height="16" viewBox="0 0 16 16" fill="none" xmlns="http://www.w3.org/2000/svg">
<g clip-path="url(#clip0_876_444)">
<path d="M15.6982 7.2876L8.7125 0.302223C8.31044 -0.10009 7.65794 -0.10009 7.25537 0.302223L5.80475 1.75285L7.64494 3.59303C8.07256 3.44853 8.56294 3.54547 8.90381 3.88635C9.24631 4.22941 9.34256 4.72397 9.19456 5.15297L10.968 6.92647C11.3971 6.77866 11.8921 6.87429 12.2348 7.21754C12.7137 7.69629 12.7137 8.47222 12.2348 8.95129C11.7557 9.43041 10.9798 9.43041 10.5005 8.95129C10.1402 8.59066 10.0512 8.0616 10.2336 7.61778L8.57975 5.96391L8.57956 10.3162C8.69945 10.3755 8.80896 10.4538 8.90381 10.5481C9.38275 11.0268 9.38275 11.8028 8.90381 12.2823C8.42475 12.7612 7.64844 12.7612 7.17006 12.2823C6.69112 11.8028 6.69112 11.0269 7.17006 10.5482C7.28484 10.4333 7.42124 10.3424 7.57137 10.2806V5.88772C7.42102 5.82634 7.28454 5.73535 7.17006 5.62016C6.80719 5.25779 6.71994 4.72535 6.90587 4.27979L5.09187 2.4656L0.301875 7.25529C-0.100625 7.65797 -0.100625 8.31054 0.301875 8.71291L7.28775 15.6984C7.68994 16.1008 8.34231 16.1008 8.745 15.6984L15.6982 8.74535C16.1006 8.34285 16.1006 7.68991 15.6982 7.2876" fill="#DE4C36"/>
</g>
<defs>
<clipPath id="clip0_876_444">
<rect width="16" height="16" fill="white"/>
</clipPath>
</defs>
</svg>
