<svg width="16" height="16" viewBox="0 0 16 16" fill="none" xmlns="http://www.w3.org/2000/svg">
<path d="M15.9722 3.13623L14.5196 14.6757L7.99027 15.9594L1.47889 14.6775L0.027832 3.13623H15.9722Z" fill="#E44D26"/>
<path d="M8 14.9784L13.2761 13.9411L14.5173 4.08008H8V14.9784Z" fill="#F16529"/>
<path d="M5.17631 6.9111H8.00006V5.49561H2.99487L3.04262 5.87535L3.53325 9.77607H8.00006V8.36058H5.35875L5.17631 6.9111ZM5.62619 10.4838H3.62244L3.90206 12.7064L7.99087 13.5113L8.00006 13.5095V12.0368L7.99131 12.0384L5.76831 11.6127L5.62619 10.4838Z" fill="#EBEBEB"/>
<path d="M1.51123 0H2.52561V0.710693H3.45354V0H4.46798V2.15216H3.45361V1.43149H2.52567V2.15216H1.51129L1.51123 0ZM5.80186 0.713706H4.90898V0H7.70986V0.713706H6.81642V2.15216H5.80204L5.80186 0.713706ZM8.15436 0H9.21204L9.86267 0.756211L10.5127 0H11.5708V2.15216H10.5605V1.08543L9.86267 1.85064H9.84517L9.14686 1.08543V2.15216H8.15436V0ZM12.0756 0H13.0903V1.4408H14.5168V2.15216H12.0755L12.0756 0Z" fill="black"/>
<path d="M7.99323 9.77607H10.4512L10.2194 11.6119L7.99316 12.038V13.5106L12.0852 12.7064L12.1152 12.4672L12.5844 8.74068L12.633 8.36058H7.99323V9.77607ZM7.99323 6.90764V6.9111H12.8147L12.8547 6.59296L12.9457 5.87535L12.9934 5.49561H7.99323V6.90768V6.90764Z" fill="white"/>
</svg>
