<svg width="16" height="16" viewBox="0 0 16 16" fill="none" xmlns="http://www.w3.org/2000/svg">
<path d="M1 1H15V15H1V1Z" fill="#F5DE19"/>
<path d="M10.4045 11.9377C10.5238 12.18 10.7091 12.3837 10.9392 12.5252C11.1692 12.6667 11.4345 12.7404 11.7045 12.7377C12.2495 12.7377 12.598 12.4652 12.598 12.0877C12.598 11.6377 12.24 11.4767 11.64 11.2142L11.311 11.0732C10.361 10.6687 9.73104 10.1622 9.73104 9.0912C9.73104 8.1047 10.481 7.3532 11.6575 7.3532C12.0384 7.32569 12.4189 7.41093 12.7516 7.59828C13.0844 7.78563 13.3546 8.06679 13.5285 8.4067L12.5 9.0642C12.433 8.89566 12.3164 8.75146 12.1656 8.65074C12.0148 8.55001 11.8369 8.49751 11.6555 8.5002C11.5764 8.49227 11.4965 8.50092 11.4209 8.52559C11.3453 8.55025 11.2757 8.59039 11.2165 8.64345C11.1573 8.69651 11.1097 8.76133 11.0769 8.83377C11.0442 8.90621 11.0268 8.98468 11.026 9.0642C11.026 9.4587 11.2705 9.6187 11.835 9.8642L12.164 10.0052C13.282 10.4847 13.914 10.9732 13.914 12.0717C13.914 13.2562 12.9835 13.9052 11.734 13.9052C11.2472 13.9362 10.7618 13.8257 10.3363 13.5869C9.91092 13.3482 9.56369 12.9914 9.33654 12.5597L10.4045 11.9377ZM5.75704 12.0517C5.96354 12.4182 6.15154 12.7282 6.60354 12.7282C7.03554 12.7282 7.30854 12.5592 7.30854 11.9017V7.4282H8.62403V11.9192C8.62403 13.2812 7.82404 13.9012 6.65954 13.9012C6.24791 13.9237 5.83911 13.8211 5.48688 13.6069C5.13464 13.3928 4.85546 13.077 4.68604 12.7012L5.75704 12.0517Z" fill="black"/>
</svg>
