<svg width="16" height="16" viewBox="0 0 16 16" fill="none" xmlns="http://www.w3.org/2000/svg">
<g clip-path="url(#clip0_876_446)">
<path d="M15.991 3.61334C15.9969 3.63461 16 3.65655 16 3.67861V7.10698C16 7.19655 15.9506 7.27928 15.8704 7.32382L12.9031 8.98061V12.2642C12.9031 12.3082 12.8912 12.3514 12.8686 12.3894C12.846 12.4275 12.8135 12.4591 12.7743 12.4812L6.58 15.9389C6.56581 15.9467 6.55037 15.9516 6.53487 15.957C6.52906 15.9589 6.52362 15.9623 6.5175 15.9639C6.4742 15.9749 6.42868 15.9749 6.38538 15.9639C6.37825 15.9621 6.37181 15.9582 6.36506 15.9558C6.35088 15.9507 6.33606 15.9464 6.32256 15.9389L0.129562 12.4811C0.0902089 12.4592 0.0575088 12.4276 0.0347613 12.3895C0.0120138 12.3515 2.34602e-05 12.3083 0 12.2642L0 1.97916C0 1.95661 0.00325 1.93473 0.009 1.91352C0.0109375 1.90631 0.0154375 1.89976 0.0180625 1.89255C0.022875 1.87946 0.0274375 1.86601 0.0345 1.85382C0.0393125 1.8457 0.046375 1.83916 0.0521875 1.83164C0.059625 1.82164 0.066375 1.81134 0.0750625 1.80255C0.0825 1.7954 0.0921875 1.79007 0.100562 1.78382C0.109937 1.77631 0.11825 1.76819 0.128875 1.76225H0.129187L3.22581 0.0334002C3.26503 0.0115173 3.30948 0 3.35472 0C3.39996 0 3.44441 0.0115173 3.48362 0.0334002L6.58025 1.76225H6.58087C6.59119 1.76855 6.59994 1.77631 6.60925 1.78352C6.61763 1.78976 6.627 1.7954 6.63438 1.80231C6.64344 1.81134 6.64988 1.8217 6.65756 1.83164C6.66306 1.83916 6.6705 1.8457 6.675 1.85382C6.68237 1.86631 6.68656 1.87946 6.69175 1.89261C6.69431 1.89976 6.69881 1.90631 6.70075 1.91382C6.70669 1.9351 6.70975 1.9571 6.70981 1.97916V8.40304L9.29019 6.96225V3.67831C9.29019 3.65649 9.29344 3.63425 9.29925 3.61334C9.3015 3.60582 9.30569 3.59928 9.30825 3.59213C9.31344 3.57898 9.31794 3.56546 9.325 3.55334C9.32981 3.54522 9.33687 3.53867 9.34244 3.53116C9.35013 3.52116 9.35656 3.51085 9.36556 3.50207C9.37306 3.49492 9.38237 3.48958 9.39075 3.48334C9.40044 3.47582 9.40881 3.4677 9.41912 3.46176H9.41944L12.5164 1.73292C12.5556 1.711 12.6 1.69947 12.6453 1.69947C12.6905 1.69947 12.735 1.711 12.7742 1.73292L15.8708 3.46176C15.8818 3.46801 15.8901 3.47582 15.8998 3.48298C15.9078 3.48928 15.9172 3.49492 15.9246 3.50176C15.9336 3.51085 15.9401 3.52116 15.9478 3.53116C15.9536 3.53867 15.9607 3.54522 15.9653 3.55334C15.9726 3.56546 15.9768 3.57898 15.9819 3.59213C15.9849 3.59928 15.9891 3.60582 15.991 3.61334ZM15.4838 6.96231V4.1114L14.4001 4.71631L12.9031 5.55219V8.4031L15.4841 6.96231H15.4838ZM12.3872 12.1196V9.26667L10.9146 10.0822L6.7095 12.4095V15.2892L12.3872 12.1195V12.1196ZM0.516187 2.41189V12.1196L6.19325 15.2889V12.4098L3.2275 10.7822L3.22656 10.7816L3.22531 10.781C3.21531 10.7753 3.20687 10.7672 3.19756 10.7604C3.18944 10.7541 3.18012 10.7491 3.17306 10.7422L3.17244 10.7413C3.16406 10.7335 3.15825 10.7238 3.15119 10.715C3.14469 10.7066 3.137 10.6994 3.13181 10.6907L3.1315 10.6897C3.12569 10.6804 3.12213 10.6691 3.11794 10.6585C3.11375 10.6491 3.10831 10.6403 3.10569 10.6304V10.6301C3.1025 10.6182 3.10188 10.6056 3.10056 10.5935C3.09931 10.5841 3.09669 10.5747 3.09669 10.5653V3.85273L1.59987 3.01649L0.516187 2.41225V2.41189ZM3.35506 0.538976L0.774938 1.97916L3.35444 3.41928L5.93419 1.97879L3.35444 0.538976H3.35506ZM4.69681 9.52673L6.19356 8.69122V2.41189L5.11 3.01686L3.61281 3.85267V10.1319L4.69681 9.52673ZM12.6453 2.23849L10.0655 3.67861L12.6453 5.11879L15.2247 3.67831L12.6453 2.23849H12.6453ZM12.3871 5.55219L10.8901 4.71631L9.80644 4.1114V6.96231L11.3032 7.79789L12.3872 8.4031V5.55219H12.3871ZM6.45106 11.9768L10.235 9.88201L12.1265 8.83522L9.54862 7.39601L6.58056 9.05298L3.87544 10.5632L6.45106 11.9768Z" fill="#FF2D20"/>
</g>
<defs>
<clipPath id="clip0_876_446">
<rect width="16" height="16" fill="white"/>
</clipPath>
</defs>
</svg>
