<svg width="16" height="16" viewBox="0 0 16 16" fill="none" xmlns="http://www.w3.org/2000/svg">
<g clip-path="url(#clip0_876_502)">
<path d="M7.99027 15.9594L1.47889 14.6775L0.027832 3.13623H15.9722L14.5196 14.6757L7.99027 15.9594Z" fill="#264DE4"/>
<path d="M13.2761 13.9411L14.5173 4.08008H8V14.9784L13.2761 13.9411Z" fill="#2965F1"/>
<path d="M3.35437 8.36058L3.53325 9.77607H8.00006V8.36058H3.35437ZM2.99487 5.49561L3.17631 6.9111H8.00006V5.49561H2.99487ZM8.00006 12.0368L7.99131 12.0384L5.76831 11.6127L5.62619 10.4838H3.62244L3.90206 12.7064L7.99087 13.5113L8.00006 13.5095V12.0368Z" fill="#EBEBEB"/>
<path d="M3.78027 0H6.19777V0.716942H4.79127V1.43388H6.1979V2.15078H3.78027V0ZM6.68134 0H9.0989V0.623424H7.69234V0.7481H9.0989V2.18198H6.6814V1.52731H8.08796V1.40264H6.68127V0H6.68134ZM9.58246 0H12V0.623424H10.5935V0.7481H12V2.18198H9.58246V1.52731H10.989V1.40264H9.58252V0H9.58246Z" fill="black"/>
<path d="M12.633 8.36058L12.9934 5.49561H7.99323V6.9111H10.8059L10.6242 8.36058H7.99323V9.77607H10.4512L10.2194 11.6119L7.99316 12.038V13.5106L12.0852 12.7064L12.1152 12.4672L12.5844 8.74068L12.633 8.36058Z" fill="white"/>
</g>
<defs>
<clipPath id="clip0_876_502">
<rect width="16" height="16" fill="white"/>
</clipPath>
</defs>
</svg>
