<svg width="16" height="16" viewBox="0 0 16 16" fill="none" xmlns="http://www.w3.org/2000/svg">
<g clip-path="url(#clip0_876_437)">
<path d="M8.02067 4H4.02067V12H12.018V8L8.02067 11.9973V4ZM12.396 5.53933C12.0339 5.40515 11.7051 5.19415 11.4322 4.92083C11.1594 4.64752 10.9489 4.31837 10.8153 3.956C10.6808 4.31826 10.4697 4.64723 10.1965 4.92048C9.92323 5.19372 9.59426 5.40481 9.232 5.53933C9.59404 5.67424 9.92281 5.88546 10.196 6.15866C10.4692 6.43185 10.6804 6.76063 10.8153 7.12267C10.9488 6.76037 11.1592 6.43126 11.4319 6.15795C11.7047 5.88464 12.034 5.6736 12.396 5.53933ZM0 6.40133C0 4.15867 0 3.03933 0.434667 2.18467C0.819975 1.4322 1.4322 0.819975 2.18467 0.434667C3.04 0 4.15867 0 6.40133 0H9.59867C11.8413 0 12.9607 0 13.8153 0.434667C14.5678 0.819975 15.18 1.4322 15.5653 2.18467C16 3.04 16 4.15867 16 6.40133V9.59867C16 11.8413 16 12.9607 15.5653 13.8153C15.18 14.5678 14.5678 15.18 13.8153 15.5653C12.96 16 11.8413 16 9.59867 16H6.40133C4.15867 16 3.03933 16 2.18467 15.5653C1.4322 15.18 0.819975 14.5678 0.434667 13.8153C0 12.96 0 11.8413 0 9.59867V6.40133Z" fill="#85B6FF"/>
</g>
<defs>
<clipPath id="clip0_876_437">
<rect width="16" height="16" fill="white"/>
</clipPath>
</defs>
</svg>
