<svg width="16" height="16" viewBox="0 0 16 16" fill="none" xmlns="http://www.w3.org/2000/svg">
<g clip-path="url(#clip0_877_508)">
<path d="M15.9292 1.52284C15.8881 1.48894 15.8358 1.47149 15.7825 1.47384C15.6365 1.47384 15.4475 1.57297 15.3456 1.62609L15.3054 1.64672C15.1348 1.72935 14.9491 1.77615 14.7598 1.78422C14.5655 1.79034 14.3983 1.80172 14.1804 1.82447C12.8895 1.95697 12.3137 2.94634 11.7591 3.90322C11.4571 4.42372 11.1454 4.96434 10.7179 5.37734C10.6294 5.46314 10.5354 5.54302 10.4364 5.61647C9.99387 5.94534 9.43825 6.18022 9.006 6.34647C8.58987 6.50559 8.1355 6.64859 7.69675 6.78697C7.29437 6.91347 6.91488 7.03322 6.56575 7.16297C6.43015 7.21291 6.29367 7.26041 6.15637 7.30547C5.83825 7.40859 5.60913 7.48772 5.27388 7.71847C5.15378 7.80004 5.03686 7.88618 4.92338 7.97672C4.65738 8.18894 4.42195 8.43687 4.22375 8.71347C4.0533 8.96862 3.85632 9.20502 3.63613 9.41872C3.56538 9.48797 3.43987 9.52197 3.25187 9.52197C3.03187 9.52197 2.765 9.47659 2.48263 9.42859C2.19138 9.37697 1.89037 9.32797 1.63225 9.32797C1.42262 9.32797 1.262 9.36209 1.14225 9.43122C1.14225 9.43122 0.940125 9.54897 0.855 9.70122L0.93875 9.73897C1.06849 9.80928 1.1886 9.89603 1.29613 9.99709C1.40824 10.1007 1.53313 10.1895 1.66775 10.2615C1.71078 10.2772 1.74992 10.302 1.7825 10.3342C1.74738 10.3858 1.69575 10.4525 1.64137 10.5237C1.34337 10.9136 1.16963 11.16 1.26925 11.2941C1.31701 11.3189 1.37035 11.3309 1.42412 11.3291C2.07363 11.3291 2.42275 11.1603 2.86413 10.9466C2.99213 10.8847 3.12238 10.8211 3.27725 10.7556C3.53538 10.6436 3.81325 10.465 4.10813 10.2758C4.49363 10.0246 4.89687 9.76635 5.28837 9.64184C5.61001 9.54378 5.94504 9.49675 6.28125 9.50247C6.69438 9.50247 7.12913 9.55759 7.5485 9.61147C7.86088 9.65172 8.18462 9.69297 8.50225 9.71209C8.6255 9.71922 8.73975 9.72284 8.85063 9.72284C8.99915 9.72332 9.14758 9.7156 9.29525 9.69972L9.33075 9.68722C9.55338 9.55047 9.65788 9.25672 9.75887 8.97259C9.82387 8.78984 9.87887 8.62572 9.96537 8.52134C9.97049 8.51632 9.97601 8.51172 9.98188 8.50759C9.98593 8.50535 9.99061 8.50452 9.99519 8.50524C9.99976 8.50597 10.004 8.5082 10.0071 8.51159V8.51984C9.95562 9.63047 9.50838 10.3357 9.05612 10.9627L8.75412 11.2865C8.75412 11.2865 9.177 11.2865 9.4175 11.1935C10.2955 10.9311 10.958 10.3528 11.4401 9.43059C11.5591 9.19387 11.6654 8.95104 11.7587 8.70309C11.7669 8.68247 11.8429 8.64434 11.8357 8.75109C11.8331 8.78259 11.831 8.81772 11.8284 8.85447C11.8284 8.87609 11.8284 8.89822 11.8243 8.92047C11.8118 9.07547 11.7753 9.40284 11.7753 9.40284L12.0464 9.25759C12.7 8.84459 13.2039 8.01134 13.5861 6.71472C13.7451 6.17459 13.8618 5.63809 13.9645 5.16572C14.0874 4.59759 14.1932 4.11072 14.3146 3.92172C14.5051 3.62547 14.7959 3.42509 15.0772 3.23047C15.1155 3.20409 15.1543 3.17872 15.1919 3.15084C15.5456 2.90259 15.8972 2.61597 15.9747 2.08147V2.06959C16.031 1.67097 15.9835 1.56922 15.9292 1.52284ZM15.0189 14.4887H13.728V12.2401H14.8924C15.3374 12.2401 15.7614 12.3238 15.7551 12.8226C15.7551 13.1742 15.5368 13.2713 15.3065 13.3083C15.6334 13.3363 15.83 13.5448 15.83 13.8816C15.8321 14.386 15.3896 14.4888 15.0189 14.4888V14.4887ZM14.9224 13.2212C15.368 13.2212 15.4676 13.0497 15.4676 12.8318C15.4676 12.5045 15.2682 12.4301 14.9224 12.4301H13.9971V13.2211L14.9224 13.2212ZM14.9347 13.4112H13.9971V14.2987H14.975C15.2493 14.2987 15.5389 14.2083 15.5389 13.863C15.5389 13.4642 15.2057 13.4112 14.9347 13.4112ZM10.9976 12.24H12.0133C12.8668 12.24 13.2933 12.7105 13.287 13.3642C13.2933 14.0437 12.8225 14.4888 12.0881 14.4888H10.9975L10.9976 12.24ZM11.2779 12.4395V14.2926H12.0525C12.7315 14.2926 12.9901 13.8345 12.9901 13.358C12.9901 12.8193 12.6664 12.4395 12.0526 12.4395H11.2779ZM9.92313 13.1091V12.8472H10.3486V14.4887H9.92463V14.2245C9.81262 14.4145 9.58225 14.5233 9.30188 14.5233C8.71638 14.5233 8.389 14.1102 8.389 13.6352C8.389 13.1772 8.69888 12.8091 9.2395 12.8091C9.54625 12.8127 9.80175 12.916 9.92313 13.1091ZM8.83875 13.6575C8.83875 13.9595 9.02875 14.2181 9.3965 14.2181C9.75163 14.2181 9.94475 13.9656 9.94475 13.6667C9.94475 13.3677 9.74487 13.1122 9.37675 13.1122C9.02325 13.1122 8.83925 13.3672 8.83925 13.6575H8.83875ZM7.58712 12.4141C7.58628 12.3843 7.59163 12.3547 7.60284 12.3271C7.61404 12.2995 7.63086 12.2745 7.65222 12.2537C7.67358 12.2329 7.69903 12.2168 7.72694 12.2064C7.75485 12.1959 7.78462 12.1914 7.81437 12.1931C7.84469 12.1921 7.87489 12.1973 7.90315 12.2083C7.9314 12.2193 7.9571 12.236 7.9787 12.2573C8.0003 12.2786 8.01734 12.3041 8.02878 12.3322C8.04022 12.3603 8.04583 12.3904 8.04525 12.4207C8.04586 12.4506 8.04021 12.4803 8.02865 12.5079C8.01709 12.5355 7.99989 12.5604 7.97814 12.5809C7.95639 12.6014 7.93058 12.6172 7.90238 12.6271C7.87417 12.6371 7.8442 12.641 7.81437 12.6387C7.78441 12.64 7.75449 12.6351 7.7265 12.6243C7.69852 12.6135 7.67306 12.5971 7.65173 12.576C7.63039 12.5549 7.61364 12.5297 7.60253 12.5018C7.59141 12.4739 7.58617 12.4441 7.58712 12.4141ZM7.60588 12.8472H8.02962V14.0467C8.02962 14.1211 8.04525 14.1742 8.10713 14.1742C8.13434 14.1736 8.16145 14.1705 8.18812 14.1651L8.25375 14.4748C8.16456 14.5101 8.06938 14.5276 7.9735 14.5266C7.79587 14.5266 7.60575 14.4748 7.60575 14.0716L7.60588 12.8472ZM6.51875 14.4888H6.0955V12.8473H6.51875V13.2151C6.56718 13.0975 6.64909 12.9966 6.75431 12.9251C6.85952 12.8536 6.98342 12.8146 7.11062 12.8128C7.20078 12.8116 7.29045 12.8263 7.3755 12.8562L7.28512 13.1661C7.21196 13.1466 7.1367 13.1362 7.061 13.135C6.75537 13.135 6.51875 13.3653 6.51875 13.7031V14.4888ZM5.13912 13.1092V12.8473H5.56313V14.4888H5.13912V14.2246C5.02712 14.4146 4.79688 14.5235 4.51638 14.5235C3.93038 14.5235 3.6035 14.1103 3.6035 13.6353C3.6035 13.1773 3.91337 12.8092 4.454 12.8092C4.76225 12.8128 5.01775 12.9161 5.13912 13.1092ZM4.05475 13.6576C4.05475 13.9596 4.24475 14.2182 4.6125 14.2182C4.96725 14.2182 5.16038 13.9657 5.16038 13.6668C5.16038 13.368 4.961 13.1123 4.59237 13.1123C4.23912 13.1123 4.05538 13.3673 4.05538 13.6576H4.05475ZM2.89975 12.2401L3.48113 14.4888H3.04238L2.655 12.8688L1.925 14.4888H1.55438L0.828375 12.8785L0.429625 14.4888H0L0.57625 12.2401H0.95625L1.74125 13.9813L2.52288 12.2401H2.89975Z" fill="#003545"/>
</g>
<defs>
<clipPath id="clip0_877_508">
<rect width="16" height="16" fill="white"/>
</clipPath>
</defs>
</svg>
