<svg width="16" height="16" viewBox="0 0 16 16" fill="none" xmlns="http://www.w3.org/2000/svg">
<path d="M7.99992 1.33325C7.12444 1.33325 6.25753 1.50569 5.4487 1.84072C4.63986 2.17575 3.90493 2.66682 3.28587 3.28587C2.03563 4.53612 1.33325 6.23181 1.33325 7.99992C1.33325 10.9466 3.24659 13.4466 5.89325 14.3333C6.22659 14.3866 6.33325 14.1799 6.33325 13.9999V12.8733C4.48659 13.2733 4.09325 11.9799 4.09325 11.9799C3.78659 11.2066 3.35325 10.9999 3.35325 10.9999C2.74659 10.5866 3.39992 10.5999 3.39992 10.5999C4.06659 10.6466 4.41992 11.2866 4.41992 11.2866C4.99992 12.2999 5.97992 11.9999 6.35992 11.8399C6.41992 11.4066 6.59325 11.1133 6.77992 10.9466C5.29992 10.7799 3.74659 10.2066 3.74659 7.66659C3.74659 6.92659 3.99992 6.33325 4.43325 5.85992C4.36659 5.69325 4.13325 4.99992 4.49992 4.09992C4.49992 4.09992 5.05992 3.91992 6.33325 4.77992C6.85992 4.63325 7.43325 4.55992 7.99992 4.55992C8.56659 4.55992 9.13992 4.63325 9.66659 4.77992C10.9399 3.91992 11.4999 4.09992 11.4999 4.09992C11.8666 4.99992 11.6333 5.69325 11.5666 5.85992C11.9999 6.33325 12.2533 6.92659 12.2533 7.66659C12.2533 10.2133 10.6933 10.7733 9.20659 10.9399C9.44659 11.1466 9.66659 11.5533 9.66659 12.1733V13.9999C9.66659 14.1799 9.77325 14.3933 10.1133 14.3333C12.7599 13.4399 14.6666 10.9466 14.6666 7.99992C14.6666 7.12444 14.4941 6.25753 14.1591 5.4487C13.8241 4.63986 13.333 3.90493 12.714 3.28587C12.0949 2.66682 11.36 2.17575 10.5511 1.84072C9.7423 1.50569 8.8754 1.33325 7.99992 1.33325Z" fill="black"/>
</svg>
