<svg width="16" height="16" viewBox="0 0 16 16" fill="none" xmlns="http://www.w3.org/2000/svg">
<path d="M4.75969 10.5579L5.24594 12.8725C5.35519 13.398 5.40075 13.7648 5.3825 13.9739C5.64844 12.929 5.83425 11.7903 5.93997 10.5579H6.52466C6.27325 12.5643 5.94166 14.0224 5.53006 14.932C5.20938 15.6329 4.85806 15.9833 4.4755 15.9833C4.3735 15.9833 4.24775 15.9381 4.09853 15.8484V15.3647C4.17144 15.3804 4.25697 15.3888 4.35534 15.3888C4.53381 15.3888 4.67766 15.3162 4.78709 15.1714C4.91813 14.9949 4.98372 14.7966 4.98372 14.5768C4.98372 14.4267 4.93256 14.1186 4.83072 13.6527L4.15322 10.5579H4.75966H4.75969ZM1.03822 9.13525L1.92884 13.1218H1.93434L2.83044 9.13525H3.56256C3.72288 11.1123 3.81756 12.9212 3.84663 14.5609H3.22938C3.20766 13.0281 3.1475 11.5868 3.04913 10.2367H3.04375L2.10381 14.5609H1.63375L0.6995 10.2367H0.694C0.624688 11.5333 0.581063 12.9746 0.562875 14.5609H0C0.036375 12.6317 0.127406 10.8233 0.273094 9.13525H1.03825H1.03822Z" fill="#00758F"/>
<path d="M11.0155 9.05473C11.9735 9.05473 12.4525 9.95266 12.4525 11.7476C12.4525 12.723 12.3085 13.4598 12.0206 13.9576C11.9688 14.0485 11.9114 14.1271 11.851 14.1999L12.529 14.6917L12.5283 14.6916L12.2876 15.3015L11.4047 14.5457C11.2584 14.6093 11.0973 14.6411 10.9219 14.6411C10.4515 14.6411 10.1001 14.4399 9.86779 14.0382C9.61279 13.5938 9.48535 12.8941 9.48535 11.9405C9.48535 10.9706 9.62916 10.2366 9.9171 9.73819C10.1793 9.28231 10.5455 9.05469 11.0155 9.05469V9.05473ZM8.08172 9.06262C8.42413 9.06262 8.73547 9.19704 9.01591 9.46491L8.87347 9.93056C8.6335 9.78092 8.39691 9.70578 8.1636 9.70578C7.97429 9.70578 7.82841 9.77262 7.72672 9.90713C7.62447 10.0405 7.56122 10.212 7.56122 10.4212C7.56122 10.7425 7.71729 11.0212 8.00544 11.2567C8.09984 11.3324 8.19392 11.409 8.28766 11.4864L8.30916 11.5042L8.31994 11.513L8.34147 11.5308L8.35222 11.5397L8.37372 11.5575C8.59185 11.7379 8.7971 11.9101 8.7971 11.9101C9.08522 12.2101 9.22885 12.53 9.22885 13.0569C9.22885 13.5171 9.11391 13.8948 8.88479 14.1904C8.6555 14.4846 8.34747 14.6321 7.96172 14.6321C7.60094 14.6321 7.25129 14.4623 6.9126 14.1255L7.07104 13.6595C7.3625 13.8738 7.62625 13.9809 7.8631 13.9809C8.08522 13.9809 8.2591 13.9081 8.38488 13.7644C8.51041 13.6197 8.58563 13.4178 8.58563 13.1619C8.58563 12.8397 8.43288 12.5643 8.15266 12.3333C8.06495 12.2622 7.9775 12.1904 7.89032 12.118L7.86885 12.1001C7.82941 12.0675 7.78969 12.0344 7.75079 12.0019L7.72969 11.9843C7.54047 11.8264 7.37688 11.6885 7.37688 11.6885C7.09675 11.3879 6.95629 11.0654 6.95629 10.5339C6.95629 10.0944 7.06104 9.73916 7.27022 9.4689C7.47991 9.19805 7.75044 9.06262 8.08172 9.06262V9.06262ZM13.5784 9.13524V13.8934H14.7421V14.5608H12.9883V9.13524H13.5784ZM15.3888 13.8955V14.0083H15.2608V14.5602H15.163V14.0083H15.0301V13.8955H15.3888H15.3888ZM15.625 13.8955L15.7478 14.3486L15.8607 13.8955H15.9993V14.5602H15.9072V14.0543L15.7787 14.5602H15.7123L15.5836 14.0543H15.5787V14.5602H15.4914V13.8955H15.625H15.625ZM10.9552 9.72197C10.3907 9.72197 10.1082 10.4055 10.1082 11.7717C10.1082 12.5543 10.1831 13.1218 10.3325 13.4755C10.4708 13.8028 10.6876 13.9661 10.9827 13.9661C11.5472 13.9661 11.8296 13.2773 11.8296 11.9002C11.8296 11.1285 11.7548 10.5659 11.6056 10.2121C11.467 9.88545 11.2504 9.72197 10.9553 9.72197H10.9552Z" fill="#F29111"/>
<path d="M9.47564 0.336187C9.66292 -0.338931 10.3178 0.172336 10.5719 0.408164C10.6342 0.467166 10.7056 0.59182 10.777 0.637894C10.8884 0.644313 10.9997 0.657103 11.1113 0.663934C11.3206 0.736095 11.5167 0.795052 11.6816 0.932863C12.4481 1.5951 12.9471 2.26994 13.4063 3.38462C13.5045 3.62073 13.5535 3.87622 13.6336 4.13172C13.7449 4.51255 13.8699 4.91232 13.999 5.27244C14.0568 5.44317 14.1015 5.63301 14.1818 5.7772C14.2132 5.84312 14.3022 5.86256 14.3554 5.90194C14.5025 6.01367 14.6808 6.09848 14.8192 6.2296C15.0776 6.46597 15.3274 6.74765 15.5545 7.03602C15.6392 7.14733 15.6969 7.3049 15.7775 7.42263V7.48204C15.706 7.51427 15.6346 7.54728 15.5632 7.57373C15.4072 7.63251 15.2691 7.61921 15.1178 7.67803C15.0243 7.71783 14.9082 7.77032 14.8101 7.78366L14.8192 7.79705C14.8769 8.03888 15.189 8.23556 15.3317 8.3802C15.5051 8.56376 15.6658 8.78639 15.7951 9.04207C15.8397 9.1073 15.8844 9.16667 15.9288 9.23173C15.9599 9.29765 15.9686 9.38293 16.0001 9.4417V9.4616C15.9653 9.44358 15.9402 9.4092 15.9165 9.37325L15.9024 9.35157C15.8882 9.33002 15.8739 9.30884 15.8576 9.29137C15.7593 9.19281 15.6616 9.07489 15.5632 8.98325C15.3941 8.82581 15.1979 8.73444 15.0243 8.57642C14.9261 8.48468 14.8325 8.3802 14.7389 8.27521C14.654 8.1832 14.5606 8.00651 14.5073 7.8754C14.4759 7.80296 14.4716 7.71783 14.4357 7.66542C14.4421 7.57791 14.4968 7.55191 14.5519 7.53055L14.5646 7.52564C14.5836 7.5184 14.6023 7.51116 14.6185 7.50157C14.8502 7.35725 15.1264 7.3049 15.4831 7.31801C15.4697 7.18662 15.2468 7.0229 15.1756 6.94423C15.0328 6.79322 14.8816 6.63565 14.7301 6.4982C14.6498 6.42623 14.5115 6.37369 14.4225 6.31487C14.3022 6.24271 14.0347 6.17059 13.968 6.03315C13.8548 5.81649 13.7734 5.55805 13.6944 5.29701L13.6729 5.22577C13.6657 5.20202 13.6585 5.17829 13.6513 5.15457C13.558 4.84021 13.442 4.51246 13.3484 4.19058C13.2994 4.03356 13.277 3.89575 13.2234 3.74515C12.8981 2.821 12.4168 2.04727 11.8332 1.50313C11.6414 1.32608 11.4276 1.16223 11.1915 1.05087C11.0577 0.991591 10.8972 1.02437 10.7546 0.978891H10.6608C10.5808 0.945791 10.5139 0.821275 10.4515 0.755625C10.3135 0.618181 10.1753 0.525894 10.0103 0.427831C9.95248 0.388496 9.78739 0.296897 9.72977 0.369012C9.69408 0.382169 9.67598 0.401929 9.6672 0.454467C9.6317 0.532863 9.66292 0.65096 9.68502 0.723258C9.75195 0.932771 9.84545 1.05729 9.93033 1.23434C10.0058 1.39136 10.0996 1.56842 10.1531 1.73914C10.2686 2.10614 10.3224 2.51274 10.4295 2.87968C10.4691 3.01768 10.5319 3.1747 10.5897 3.29917C10.6387 3.39796 10.7277 3.46939 10.7546 3.59446C10.8083 3.72557 10.6743 4.15822 10.6432 4.29561C10.5271 4.83324 10.5496 5.58057 10.6833 6.04658L10.6905 6.07116L10.6976 6.09605C10.7464 6.26673 10.7986 6.45053 10.9284 6.49825C10.9374 6.48523 10.9284 6.49206 10.9461 6.48523C10.9775 6.12452 10.9864 5.77715 11.0711 5.49493C11.1201 5.31847 11.2179 5.19372 11.2849 5.04968C11.3296 5.08892 11.3296 5.20725 11.3562 5.28555C11.4142 5.48865 11.4765 5.71132 11.548 5.91501C11.6948 6.33449 11.8599 6.74118 12.047 7.10813C12.1096 7.2392 12.1985 7.38348 12.2787 7.50153C12.3145 7.54724 12.3545 7.57364 12.3813 7.63246H12.39V7.65227C12.2564 7.57997 12.1716 7.37706 12.065 7.25859C11.8642 7.03592 11.6238 6.70153 11.4855 6.38066C11.4276 6.19645 11.365 6.0199 11.3026 5.83661V5.82336C11.276 5.87572 11.2849 5.92771 11.2716 6.00693C11.2137 6.33449 11.2583 6.70818 11.0577 6.826C10.8304 6.96399 10.6609 6.60333 10.5897 6.43943C10.3623 5.89543 10.3 4.9777 10.4604 4.23689C10.496 4.0729 10.5009 3.87622 10.563 3.74529C10.5496 3.62691 10.4874 3.59455 10.4515 3.52202C10.3891 3.39805 10.3357 3.25364 10.2868 3.11597C10.193 2.84704 10.1263 2.52571 10.055 2.2373C10.0237 2.11952 10.0148 2.00129 9.98355 1.88979C9.9303 1.71961 9.83214 1.54889 9.75642 1.39833C9.65389 1.18194 9.35526 0.762548 9.47564 0.336187V0.336187ZM10.9373 1.62054C10.9492 1.63805 10.9635 1.65337 10.9784 1.66845L10.9964 1.68651C11.0203 1.71081 11.0434 1.73639 11.0576 1.77124C11.0801 1.81736 11.0843 1.86288 11.1112 1.90909C11.1112 2.06666 11.0801 2.17142 11.0173 2.2367C11.0173 2.2367 11.013 2.24358 11.0086 2.25C10.973 2.14497 10.9417 2.04048 10.9059 1.93554C10.8617 1.84395 10.7992 1.77128 10.7632 1.66662H10.7545V1.65346C10.8083 1.63397 10.8617 1.62054 10.9373 1.62054Z" fill="#00758F"/>
</svg>
