<svg width="22" height="14" viewBox="0 0 22 14" fill="none" xmlns="http://www.w3.org/2000/svg">
<g clip-path="url(#clip0_876_485)">
<path d="M11 13.9585C17.0751 13.9585 22 10.8338 22 6.97926C22 3.12472 17.0751 0 11 0C4.92487 0 0 3.12472 0 6.97926C0 10.8338 4.92487 13.9585 11 13.9585Z" fill="url(#paint0_radial_876_485)"/>
<path d="M11 13.44C16.8378 13.44 21.5703 10.5475 21.5703 6.9793C21.5703 3.41113 16.8378 0.518555 11 0.518555C5.16218 0.518555 0.429688 3.41113 0.429688 6.9793C0.429688 10.5475 5.16218 13.44 11 13.44Z" fill="#6181B6"/>
<path d="M13.1398 9.07408L13.664 5.81779C13.7843 5.08149 13.6812 4.53186 13.3718 4.18964C13.071 3.85779 12.5554 3.69186 11.7991 3.69186H10.8882L11.146 2.07408C11.1546 2.01186 11.146 1.94964 11.1116 1.89779C11.0773 1.84594 11.0343 1.8252 10.9827 1.8252H9.72805C9.64211 1.8252 9.57336 1.89779 9.55617 1.99112L8.99758 5.44445C8.94602 5.05038 8.82571 4.71853 8.61946 4.4489C8.24993 3.94075 7.67414 3.68149 6.89211 3.68149H4.47727C4.39133 3.68149 4.32258 3.75408 4.30539 3.84742L3.17961 10.8578C3.17102 10.92 3.17961 10.9822 3.21399 11.0341C3.24836 11.0859 3.29133 11.1067 3.34289 11.1067H4.60618C4.69211 11.1067 4.76086 11.0341 4.77805 10.9408L5.05305 9.25038H5.98977C6.47961 9.25038 6.90071 9.18816 7.21868 9.06371C7.55383 8.9289 7.85461 8.71112 8.12102 8.41038C8.33586 8.17186 8.51633 7.90223 8.65383 7.61186L8.43039 9.01186C8.4218 9.07408 8.43039 9.13631 8.46477 9.18816C8.49914 9.24001 8.54211 9.26075 8.59368 9.26075H9.84836C9.9343 9.26075 10.003 9.18816 10.0202 9.09483L10.639 5.25779H11.4984C11.8679 5.25779 11.971 5.34075 12.0054 5.38223C12.0312 5.41334 12.0827 5.53779 12.0226 5.92149L11.5241 9.02223C11.5156 9.08446 11.5241 9.14668 11.5585 9.19853C11.5929 9.25038 11.6359 9.27112 11.6874 9.27112H12.9765C13.0538 9.24001 13.1226 9.16742 13.1398 9.07408ZM7.33039 6.37779C7.25305 6.8652 7.10696 7.21779 6.89211 7.41483C6.67727 7.61186 6.32493 7.71557 5.86086 7.71557H5.30227L5.70618 5.20594H6.42805C6.96086 5.20594 7.17571 5.34075 7.26164 5.45483C7.37336 5.62075 7.39914 5.94223 7.33039 6.37779ZM18.5023 4.4489C18.1327 3.94075 17.557 3.68149 16.7749 3.68149H14.3429C14.257 3.68149 14.1882 3.75408 14.171 3.84742L13.0452 10.8474C13.0366 10.9096 13.0452 10.9719 13.0796 11.0237C13.114 11.0756 13.157 11.0963 13.2085 11.0963H14.4718C14.5577 11.0963 14.6265 11.0237 14.6437 10.9304L14.9187 9.24001H15.8554C16.3452 9.24001 16.7663 9.17779 17.0843 9.05334C17.4195 8.91853 17.7202 8.70075 17.9866 8.40001C18.2101 8.15112 18.3991 7.87112 18.5366 7.57038C18.6741 7.26964 18.7773 6.93779 18.8374 6.57483C18.9835 5.6726 18.8718 4.96742 18.5023 4.4489ZM17.1874 6.37779C17.1101 6.8652 16.964 7.21779 16.7491 7.41483C16.5343 7.61186 16.182 7.71557 15.7179 7.71557H15.1593L15.5632 5.20594H16.2851C16.8179 5.20594 17.0327 5.34075 17.1187 5.45483C17.239 5.62075 17.2648 5.94223 17.1874 6.37779Z" fill="white"/>
<path d="M6.42813 4.99864C6.90938 4.99864 7.22734 5.10234 7.39062 5.32012C7.55391 5.5379 7.58828 5.90086 7.50234 6.41938C7.41641 6.95864 7.24453 7.35272 6.99531 7.58086C6.74609 7.80901 6.36797 7.92309 5.86094 7.92309H5.09609L5.56875 4.99864H6.42813ZM3.35156 10.889H4.61484L4.91563 9.03272H5.99844C6.47969 9.03272 6.86641 8.97049 7.17578 8.84605C7.48516 8.7216 7.76016 8.52457 8.01797 8.2342C8.23281 7.99568 8.40469 7.73642 8.53359 7.45642C8.6625 7.17642 8.75703 6.86531 8.80859 6.52309C8.94609 5.69346 8.84297 5.05049 8.50781 4.58383C8.17266 4.11716 7.63984 3.88901 6.90938 3.88901H4.47734L3.35156 10.889ZM9.73672 2.03271H10.9914L10.6906 3.88901H11.8078C12.5125 3.88901 12.9938 4.0342 13.2602 4.33494C13.5266 4.63568 13.6039 5.11271 13.5008 5.77642L12.9766 9.03272H11.7047L12.2031 5.93197C12.2633 5.57938 12.2375 5.34086 12.143 5.21642C12.0484 5.09197 11.8336 5.01938 11.5156 5.01938H10.5102L9.86563 9.03272H8.61094L9.73672 2.03271ZM16.2852 4.99864C16.7664 4.99864 17.0844 5.10234 17.2477 5.32012C17.4109 5.5379 17.4453 5.90086 17.3594 6.41938C17.2734 6.95864 17.1016 7.35272 16.8523 7.58086C16.6031 7.80901 16.225 7.92309 15.718 7.92309H14.9531L15.4258 4.99864H16.2852ZM13.2086 10.889H14.4719L14.7727 9.03272H15.8555C16.3367 9.03272 16.7234 8.97049 17.0328 8.84605C17.3422 8.7216 17.6172 8.52457 17.875 8.2342C18.0898 7.99568 18.2617 7.73642 18.3906 7.45642C18.5195 7.17642 18.6141 6.86531 18.6656 6.52309C18.8031 5.69346 18.7 5.05049 18.3648 4.58383C18.0297 4.11716 17.4969 3.88901 16.7664 3.88901H14.3344L13.2086 10.889Z" fill="#000004"/>
</g>
<defs>
<radialGradient id="paint0_radial_876_485" cx="0" cy="0" r="1" gradientUnits="userSpaceOnUse" gradientTransform="translate(6.60443 2.45441) scale(14.4457 17.4321)">
<stop stop-color="white"/>
<stop offset="0.5" stop-color="#4C6B97"/>
<stop offset="1" stop-color="#231F20"/>
</radialGradient>
<clipPath id="clip0_876_485">
<rect width="22" height="14" fill="white"/>
</clipPath>
</defs>
</svg>
