<svg width="18" height="16" viewBox="0 0 18 16" fill="none" xmlns="http://www.w3.org/2000/svg">
<g clip-path="url(#clip0_879_431)">
<path d="M14.7732 5.18062C14.582 5.11502 14.3892 5.05426 14.1949 4.99837C14.2276 4.86504 14.2576 4.73332 14.2843 4.60392C14.722 2.47894 14.4358 0.767005 13.4584 0.203356C12.5212 -0.336995 10.9885 0.226444 9.44055 1.5736C9.28799 1.70661 9.13882 1.84345 8.99318 1.98399C8.89568 1.89053 8.79646 1.79889 8.69556 1.70911C7.07325 0.26869 5.44714 -0.338398 4.47072 0.226865C3.53437 0.7689 3.25711 2.37823 3.65121 4.39213C3.69042 4.59158 3.73469 4.79001 3.78399 4.98722C3.55381 5.05262 3.3317 5.12223 3.11914 5.19634C1.21711 5.8595 0.00244141 6.89872 0.00244141 7.97669C0.00244141 9.09002 1.30644 10.2067 3.28749 10.8838C3.4481 10.9385 3.61005 10.9892 3.77318 11.0358C3.7202 11.2482 3.67316 11.462 3.63213 11.677C3.25641 13.656 3.54981 15.2273 4.48363 15.7659C5.44813 16.3221 7.06693 15.7504 8.64314 14.3726C8.77096 14.2605 8.89595 14.1453 9.01802 14.0271C9.17574 14.1793 9.33768 14.327 9.50363 14.4702C11.0305 15.784 12.5384 16.3145 13.4714 15.7744C14.4349 15.2166 14.7481 13.5286 14.3415 11.4749C14.3095 11.314 14.2736 11.154 14.2338 10.9948C14.3475 10.9611 14.4591 10.9264 14.5678 10.8904C16.6274 10.2081 17.9674 9.1049 17.9674 7.97669C17.9674 6.89479 16.7135 5.84855 14.7732 5.18062ZM14.3265 10.162C14.2283 10.1944 14.1275 10.2258 14.0248 10.2563C13.7974 9.53655 13.4906 8.77122 13.1151 7.98041C13.4734 7.20848 13.7684 6.4529 13.9894 5.73781C14.1732 5.79101 14.3515 5.84708 14.5234 5.90623C16.1859 6.47858 17.1999 7.32469 17.1999 7.97669C17.1999 8.67115 16.1048 9.57269 14.3265 10.162ZM13.5887 11.624C13.7685 12.5321 13.7941 13.3531 13.675 13.995C13.5681 14.5718 13.3529 14.9563 13.0868 15.1103C12.5207 15.438 11.3099 15.0121 10.0042 13.8884C9.84983 13.7553 9.6992 13.6179 9.55248 13.4765C10.0587 12.9229 10.5646 12.2793 11.0584 11.5645C11.9269 11.4874 12.7474 11.3614 13.4914 11.1894C13.5273 11.3335 13.5597 11.4784 13.5887 11.624ZM6.12707 15.0537C5.57395 15.249 5.13339 15.2546 4.86707 15.101C4.30041 14.7742 4.06483 13.5125 4.38616 11.8202C4.42436 11.6202 4.46809 11.4213 4.51732 11.2238C5.25318 11.3866 6.0677 11.5036 6.93823 11.5742C7.43535 12.2737 7.95584 12.9165 8.48041 13.4795C8.36893 13.5874 8.25481 13.6925 8.13816 13.7947C7.44111 14.404 6.74265 14.8363 6.12707 15.0537ZM3.53577 10.1577C2.65977 9.85823 1.93634 9.46911 1.44048 9.04448C0.994863 8.66294 0.76995 8.28406 0.76995 7.97669C0.76995 7.32251 1.74518 6.48813 3.37177 5.92104C3.56918 5.85227 3.77577 5.78736 3.99016 5.72644C4.215 6.45767 4.50988 7.22223 4.86574 7.99536C4.50525 8.77992 4.20616 9.55669 3.97914 10.2965C3.83024 10.2539 3.6824 10.2076 3.53577 10.1577ZM4.40441 4.24469C4.06679 2.51929 4.291 1.21774 4.85528 0.891075C5.45627 0.543146 6.78525 1.03922 8.18602 2.28301C8.27736 2.3643 8.36723 2.44723 8.45556 2.53178C7.9336 3.09227 7.41788 3.73037 6.92518 4.42567C6.08027 4.50399 5.27149 4.62974 4.52792 4.79823C4.4821 4.61481 4.44092 4.43019 4.40441 4.24469ZM12.1537 6.1583C11.978 5.85493 11.7959 5.55537 11.6074 5.25985C12.1805 5.33234 12.7297 5.42855 13.2455 5.54616C13.0907 6.04244 12.8977 6.56125 12.6705 7.09318C12.5045 6.77815 12.3322 6.46646 12.1537 6.1583ZM8.99353 3.08034C9.34749 3.46385 9.70202 3.89199 10.0507 4.35655C9.34335 4.32314 8.63481 4.323 7.92742 4.35613C8.27648 3.89585 8.63402 3.46827 8.99353 3.08034ZM5.81311 6.1635C5.63685 6.46917 5.46775 6.77891 5.30595 7.09248C5.08251 6.56244 4.89128 6.04125 4.73514 5.53795C5.2477 5.42329 5.7943 5.32953 6.36385 5.25837C6.17321 5.55571 5.98958 5.85754 5.81311 6.1635ZM6.3802 10.7496C5.79177 10.6839 5.23697 10.595 4.72455 10.4834C4.88314 9.97115 5.07858 9.43887 5.30686 8.89746C5.46931 9.21126 5.63911 9.52119 5.81613 9.82701C5.99816 10.1414 6.18665 10.4493 6.3802 10.7496ZM9.01472 12.9271C8.65093 12.5347 8.28813 12.1006 7.93381 11.6336C8.27781 11.6471 8.62848 11.654 8.9849 11.654C9.35107 11.654 9.71304 11.6457 10.0693 11.6299C9.71949 12.1053 9.3663 12.5401 9.01472 12.9271ZM12.6777 8.86981C12.9179 9.41718 13.1203 9.94665 13.281 10.4502C12.7601 10.569 12.1977 10.6648 11.6052 10.7358C11.7951 10.4348 11.9789 10.1301 12.1567 9.82174C12.3374 9.50834 12.5111 9.19095 12.6777 8.86981ZM11.4919 9.4383C11.2198 9.91103 10.9324 10.3748 10.6301 10.8288C10.0826 10.8676 9.53381 10.8869 8.9849 10.8866C8.42581 10.8866 7.88202 10.8692 7.35837 10.8352C7.04821 10.3822 6.7553 9.91766 6.48027 9.44251C6.20653 8.96989 5.9509 8.48704 5.71381 7.99501C5.9503 7.50286 6.20522 7.01978 6.47802 6.54679L6.47795 6.54686C6.75065 6.07376 7.04122 5.61118 7.34904 5.16013C7.88328 5.11971 8.43114 5.09865 8.98483 5.09865C9.54104 5.09865 10.0897 5.11992 10.6238 5.16062C10.9285 5.611 11.2172 6.07198 11.4894 6.54272C11.7631 7.01467 12.0214 7.49539 12.2638 7.98413C12.0239 8.47786 11.7664 8.9629 11.4919 9.4383ZM13.0751 0.868198C13.6766 1.21515 13.9106 2.61423 13.5326 4.44897C13.5085 4.56602 13.4814 4.68525 13.4519 4.80616C12.7065 4.63409 11.8972 4.50616 11.0498 4.42665C10.5562 3.72371 10.0447 3.08462 9.53121 2.53136C9.66578 2.40164 9.80356 2.27528 9.94441 2.15241C11.2707 0.998233 12.5103 0.542514 13.0751 0.868198ZM8.9849 6.37248C9.87086 6.37248 10.5891 7.09072 10.5891 7.97669C10.5891 8.86265 9.87086 9.5809 8.9849 9.5809C8.09893 9.5809 7.38069 8.86265 7.38069 7.97669C7.38069 7.09072 8.09893 6.37248 8.9849 6.37248Z" fill="#00D8FF"/>
</g>
<defs>
<clipPath id="clip0_879_431">
<rect width="17.97" height="16" fill="white"/>
</clipPath>
</defs>
</svg>
