<svg width="16" height="16" viewBox="0 0 16 16" fill="none" xmlns="http://www.w3.org/2000/svg">
<path d="M7 10.9729C6.65333 10.9344 6.31235 10.8555 5.984 10.7379C5.994 10.5019 6 10.2559 6 9.99986V9.66286C6.31 9.81086 6.647 9.91386 7 9.96486V7.49986C7 7.10203 7.15804 6.7205 7.43934 6.4392C7.72064 6.15789 8.10218 5.99986 8.5 5.99986H10.965C10.8853 5.44574 10.6737 4.91884 10.3482 4.46338C10.0227 4.00792 9.59272 3.63718 9.0943 3.38228C8.59587 3.12739 8.04357 2.99577 7.48375 2.99848C6.92394 3.00119 6.37294 3.13815 5.877 3.39786C5.7979 3.07079 5.66763 2.75827 5.491 2.47186C6.13927 2.14828 6.85609 1.98602 7.58051 1.99888C8.30493 2.01173 9.01554 2.19932 9.65192 2.54568C10.2883 2.89205 10.8316 3.38696 11.2357 3.98834C11.6398 4.58971 11.8928 5.27978 11.973 5.99986H13.5C13.8978 5.99986 14.2794 6.15789 14.5607 6.4392C14.842 6.7205 15 7.10203 15 7.49986V12.4999C15 12.8977 14.842 13.2792 14.5607 13.5605C14.2794 13.8418 13.8978 13.9999 13.5 13.9999H8.5C8.10218 13.9999 7.72064 13.8418 7.43934 13.5605C7.15804 13.2792 7 12.8977 7 12.4999V10.9729ZM11.973 6.99986C11.8594 8.01445 11.4043 8.9603 10.6824 9.68222C9.96045 10.4041 9.0146 10.8592 8 10.9729V12.4999C8 12.6325 8.05268 12.7596 8.14645 12.8534C8.24021 12.9472 8.36739 12.9999 8.5 12.9999H13.5C13.6326 12.9999 13.7598 12.9472 13.8536 12.8534C13.9473 12.7596 14 12.6325 14 12.4999V7.49986C14 7.36725 13.9473 7.24007 13.8536 7.1463C13.7598 7.05253 13.6326 6.99986 13.5 6.99986H11.973ZM10.965 6.99986H8.5C8.36739 6.99986 8.24021 7.05253 8.14645 7.1463C8.05268 7.24007 8 7.36725 8 7.49986V9.96486C8.74798 9.85674 9.44091 9.50956 9.97531 8.97516C10.5097 8.44077 10.8569 7.74783 10.965 6.99986ZM4.795 7.56086C4.69 7.17486 4.52 6.78786 4.228 6.49086C4.7 6.04386 5 5.33186 5 4.49986C5 3.80286 4.859 3.32386 4.604 2.94086C4.49085 2.77613 4.36008 2.62423 4.214 2.48786C4.15801 2.4338 4.10134 2.38047 4.044 2.32786C3.983 2.27086 3.927 2.21886 3.854 2.14586C3.704 1.99586 3.687 1.87586 3.687 1.81286C3.68717 1.77784 3.6929 1.74307 3.704 1.70986C3.74972 1.61098 3.7619 1.49988 3.73869 1.39345C3.71547 1.28702 3.65814 1.19108 3.5754 1.12023C3.49266 1.04937 3.38904 1.00747 3.2803 1.00091C3.17157 0.994344 3.06366 1.02347 2.973 1.08386L2.971 1.08486L2.968 1.08686L2.959 1.09286L2.929 1.11286C2.779 1.21985 2.63448 1.33433 2.496 1.45586C2.246 1.67686 1.92 2.00386 1.689 2.39386C1.48735 2.71718 1.32551 3.0637 1.207 3.42586C1.087 3.78486 1 4.17386 1 4.49986C1 5.33186 1.3 6.04286 1.772 6.49186C1.48 6.78786 1.31 7.17486 1.205 7.56186C1 8.31386 1 9.24386 1 9.96286V9.99986C1 12.0579 1.385 13.2799 1.821 14.0069C2.04 14.3709 2.268 14.6059 2.459 14.7539C2.56077 14.8332 2.67153 14.9004 2.789 14.9539C2.85693 14.9787 2.92791 14.9941 3 14.9999C3.084 14.9999 3.211 14.9539 3.211 14.9539C3.32847 14.9004 3.43923 14.8332 3.541 14.7539C3.731 14.6059 3.961 14.3709 4.179 14.0069C4.615 13.2809 5 12.0579 5 9.99986V9.96386C5 9.24386 5 8.31486 4.795 7.56086ZM2.487 7.19086C2.6 7.07686 2.751 6.99986 3 6.99986C3.25 6.99986 3.4 7.07786 3.513 7.18986C3.639 7.31686 3.748 7.52286 3.83 7.82386C3.996 8.43486 4 9.23686 4 9.99986C4 11.9419 3.635 12.9699 3.321 13.4929C3.201 13.6929 3.088 13.8219 3 13.9029C2.87427 13.782 2.7662 13.6439 2.679 13.4929C2.365 12.9689 2 11.9419 2 9.99986C2 9.23686 2.004 8.43486 2.17 7.82386C2.252 7.52386 2.361 7.31786 2.487 7.19086ZM3 5.99986C2.615 5.99986 2 5.57186 2 4.49986C2 4.32686 2.052 4.05286 2.156 3.74286C2.25077 3.45019 2.38143 3.17039 2.545 2.90986C2.632 2.76286 2.745 2.61986 2.867 2.48886C2.936 2.61086 3.027 2.73386 3.147 2.85386C3.22 2.92686 3.315 3.01486 3.396 3.09086L3.52 3.20686C3.625 3.30886 3.706 3.39786 3.771 3.49686C3.891 3.67586 4 3.94686 4 4.49986C4 5.57186 3.385 5.99986 3 5.99986Z" fill="#0AB477"/>
</svg>
